<svg width="1439" height="261" viewBox="0 0 1439 261" fill="none" xmlns="http://www.w3.org/2000/svg">
<path d="M642.233 202.15L660.802 69.019C665.523 35.3428 678.113 19.2915 699.514 19.2915C717.454 19.2915 737.597 31.2513 737.597 55.1708C737.597 63.3538 735.079 73.1105 729.099 84.4408L662.691 207.815C657.34 217.572 653.564 226.07 653.564 232.364C653.564 240.547 660.488 245.898 665.838 245.898C672.448 245.898 681.575 238.974 697.626 226.699L726.581 204.353C738.541 195.226 749.557 191.449 758.999 191.449C779.771 191.449 793.619 209.389 793.619 227.329C793.619 245.268 780.086 263.208 747.039 263.208H684.407C650.102 263.208 640.974 251.563 640.974 219.146C640.974 214.11 641.289 208.445 642.233 202.15Z" fill="black"/>
<path d="M489.864 247.784L476.331 265.095H475.387V60.5194C475.387 55.2739 473.918 50.448 470.98 46.0418C468.253 41.6356 463.847 38.2784 457.762 35.9704V35.0262C466.784 34.1869 475.492 31.9838 483.884 28.4169C492.277 24.8499 499.201 19.9191 504.657 13.6245H505.601V117.171C505.601 119.479 505.496 121.682 505.286 123.78C505.286 125.879 505.181 128.606 504.971 131.963H505.286C509.063 127.557 514.204 122.941 520.708 118.115C527.422 113.08 534.976 108.778 543.369 105.211C551.761 101.644 560.679 99.8608 570.121 99.8608C581.661 99.8608 592.047 103.008 601.279 109.303C610.721 115.597 618.065 124.2 623.31 135.111C628.766 145.812 631.493 157.981 631.493 171.62C631.493 185.048 629.08 197.532 624.255 209.073C619.429 220.403 612.714 230.474 604.112 239.287C595.509 247.889 585.648 254.604 574.527 259.429C563.407 264.255 551.552 266.668 538.962 266.668C527.842 266.668 518.085 264.885 509.692 261.318C501.509 257.541 494.9 253.03 489.864 247.784ZM598.761 181.691C598.342 162.387 593.726 147.28 584.913 136.37C576.31 125.249 565.085 119.689 551.237 119.689C543.054 119.689 535.081 121.367 527.317 124.725C519.554 127.872 512.315 131.754 505.601 136.37V232.677C505.601 242.119 508.853 249.253 515.358 254.079C521.862 258.905 529.625 261.318 538.648 261.318C550.188 261.318 560.469 257.856 569.491 250.932C578.723 244.008 585.962 234.566 591.208 222.606C596.453 210.646 598.971 197.008 598.761 181.691Z" fill="black"/>
<path d="M431.931 264.78C414.621 264.78 409.586 254.394 409.271 242.435H408.956C398.255 256.283 380.63 266.354 357.655 266.354C325.238 266.354 306.983 244.952 306.983 220.403C306.983 178.859 338.771 170.361 371.188 168.473C415.88 165.955 426.581 163.122 426.581 142.035C426.581 121.893 410.844 117.172 393.219 116.857C366.782 116.542 351.675 125.669 347.269 149.589H321.776C327.441 117.172 352.934 97.0288 395.108 97.0288C426.581 97.0288 456.166 111.821 448.297 152.421L433.505 227.642C431.302 239.602 432.561 247.156 447.668 244.323H448.612L444.835 262.577C441.688 263.522 437.911 264.78 431.931 264.78ZM332.476 218.515C332.476 235.51 343.492 246.841 363.005 246.841C394.478 246.841 411.159 225.124 415.88 201.205L420.286 178.859C410.215 184.524 397.311 185.468 370.244 187.671C357.655 188.616 332.476 190.504 332.476 218.515Z" fill="black"/>
<path d="M147.8 228.114V122.831H165.347V105.284H182.894V87.7365H235.536V105.284H200.441V122.831H182.894V228.114H200.441V245.661H235.536V263.208H182.894V245.661H165.347V228.114H147.8ZM253.083 245.661H235.536V228.114H253.083V122.831H235.536V105.284H253.083V17.5479H288.177V263.208H253.083V245.661Z" fill="black"/>
<path d="M139.377 70.1886H121.83V105.283H104.283V140.377H86.7358V175.472H69.1886V210.566H51.6415V245.66H34.0943V280.754H-1V245.66H16.5472V210.566H34.0943V175.472H51.6415V140.377H69.1886V105.283H86.7358V70.1886H104.283V35.0943H121.83V0H156.924V35.0943H139.377V70.1886Z" fill="black"/>
<path d="M1268.74 262.005L1314.1 27H1340.4L1323.63 115.414H1324.29C1337.44 98.9805 1356.5 88.1342 1379.18 88.1342C1416.32 88.1342 1439 116.4 1439 158.471C1439 209.745 1411.06 266.935 1353.21 266.935C1328.24 266.935 1310.49 256.089 1300.3 237.025H1299.64L1295.04 262.005H1268.74ZM1308.51 193.64C1308.19 222.564 1321.99 244.914 1352.23 244.914C1394.3 244.914 1412.05 197.913 1412.05 160.115C1412.05 133.82 1402.19 110.484 1372.28 110.484C1331.19 110.484 1308.84 153.212 1308.51 193.64Z" fill="black"/>
<path d="M1206.98 262.005L1211.26 238.34H1210.6C1196.79 254.774 1178.39 265.949 1153.41 265.949C1120.21 265.949 1104.44 244.914 1111.01 210.403L1134.02 92.0786H1159.98L1136.98 210.074C1132.37 233.41 1138.95 243.928 1159.65 243.928C1189.89 243.928 1215.2 218.62 1221.45 187.067L1239.85 92.0786H1266.15L1233.28 262.005H1206.98Z" fill="black"/>
<path d="M1040.23 262.005L1085.59 27H1111.89L1066.53 262.005H1040.23Z" fill="black"/>
<path d="M951.185 266.606C909.114 266.606 880.191 241.627 880.191 193.64C880.191 140.722 915.688 87.8052 970.906 87.8052C1009.03 87.8052 1031.05 109.169 1034.34 146.967H1007.72C1005.42 124.617 994.242 109.498 969.591 109.498C928.506 109.498 906.814 152.883 906.814 194.297C906.814 222.235 918.975 244.585 951.514 244.585C975.507 244.585 994.242 229.137 1001.14 202.185H1026.45C1016.92 243.27 987.668 266.606 951.185 266.606Z" fill="black"/>
<path d="M823.789 262.006L830.034 229.467H861.587L855.342 262.006H823.789Z" fill="black"/>
</svg>
